<svg width="129" height="129" viewBox="0 0 129 129" fill="none" xmlns="http://www.w3.org/2000/svg">
<path d="M0.17041 5.00001C0.17041 2.23858 2.40899 0 5.17041 0H123.636C126.398 0 128.636 2.23858 128.636 5V123.466C128.636 126.227 126.398 128.466 123.636 128.466H5.17042C2.40899 128.466 0.17041 126.227 0.17041 123.466V5.00001Z" fill="#0B1835"/>
<path fill-rule="evenodd" clip-rule="evenodd" d="M102.76 21.6799L95.92 99.1999L64 108.32L32.08 99.1999L25.24 21.6799H102.76ZM45.3058 71.8399H54.4258L54.6484 77.5399L64 80.7284L73.3516 77.5399L74.0284 67.2799H53.9716L53.5084 58.1599H74.4916L75.1684 49.0399H43.7116L43.0258 39.9199H84.7516L83.6116 58.1599L82.0084 84.3799L64 90.3115L45.9916 84.3799L45.3058 71.8399Z" fill="#186DF8"/>
</svg>
