<svg width="129" height="129" viewBox="0 0 129 129" fill="none" xmlns="http://www.w3.org/2000/svg">
<rect width="128.466" height="128.466" rx="5" fill="#141414"/>
<path d="M54.6107 27H68.346V90.5775C61.2998 91.9163 56.1266 92.4511 50.5084 92.4511C33.7406 92.4505 25 84.8708 25 70.3322C25 56.3291 34.2761 47.2322 48.6349 47.2322C50.8648 47.2322 52.5592 47.4107 54.6107 47.9455V27ZM54.6107 59.002C53.0055 58.4672 51.6674 58.2894 49.9729 58.2894C43.0167 58.2894 39.0024 62.5701 39.0024 70.0618C39.0024 77.3757 42.8382 81.3887 49.8844 81.3887C51.3996 81.3887 52.6485 81.2995 54.6107 81.033V59.002Z" fill="#E83030"/>
<path d="M90.1952 48.2108V80.0514C90.1952 91.022 89.3919 96.2838 86.9842 100.832C84.7542 105.204 81.8109 107.968 75.7465 111L62.9923 104.936C69.0574 102.081 72 99.5854 73.8729 95.7483C75.8351 91.8246 76.4605 87.2761 76.4605 75.3245V48.2108H90.1952ZM76.4599 27.073H90.1952V41.1653H76.4599V27.073Z" fill="#E83030"/>
</svg>
