<svg width="129" height="129" viewBox="0 0 129 129" fill="none" xmlns="http://www.w3.org/2000/svg">
<path d="M0.34082 5.17042C0.34082 2.40899 2.5794 0.17041 5.34082 0.17041H123.807C126.568 0.17041 128.807 2.40899 128.807 5.17041V123.636C128.807 126.398 126.568 128.636 123.807 128.636H5.34083C2.5794 128.636 0.34082 126.398 0.34082 123.636V5.17042Z" fill="#141414"/>
<path d="M51.3114 112.836C59.8424 112.836 66.7245 105.954 66.7245 97.4231V82.0101H51.3114C42.7805 82.0101 35.8984 88.8922 35.8984 97.4231C35.8984 105.954 42.7805 112.836 51.3114 112.836ZM35.8984 66.597C35.8984 58.0661 42.7805 51.184 51.3114 51.184H66.7245V82.0101H51.3114C42.7805 82.0101 35.8984 75.128 35.8984 66.597ZM35.8984 35.771C35.8984 27.24 42.7805 20.3579 51.3114 20.3579H66.7245V51.184H51.3114C42.7805 51.184 35.8984 44.3019 35.8984 35.771ZM66.7245 20.3579H82.1375C90.6684 20.3579 97.5505 27.24 97.5505 35.771C97.5505 44.3019 90.6684 51.184 82.1375 51.184H66.7245V20.3579ZM97.5505 66.597C97.5505 75.128 90.6684 82.0101 82.1375 82.0101C73.6066 82.0101 66.7245 75.128 66.7245 66.597C66.7245 58.0661 73.6066 51.184 82.1375 51.184C90.6684 51.184 97.5505 58.0661 97.5505 66.597Z" fill="#E83030"/>
</svg>
