<svg width="60" height="60" viewBox="0 0 60 60" fill="none" xmlns="http://www.w3.org/2000/svg">
<path d="M0 10C0 4.47715 4.47715 0 10 0H50C55.5228 0 60 4.47715 60 10V50C60 55.5228 55.5228 60 50 60H10C4.47715 60 0 55.5228 0 50V10Z" fill="#0B1835"/>
<path fill-rule="evenodd" clip-rule="evenodd" d="M29.5 8.79402C17.7764 8.79402 8.26984 18.2985 8.26984 30.0242C8.26984 39.4046 14.3529 47.3622 22.7883 50.1698C23.849 50.3666 24.2385 49.7092 24.2385 49.1485C24.2385 48.6422 24.2188 46.9698 24.2097 45.1959C18.3034 46.4801 17.0571 42.691 17.0571 42.691C16.0914 40.2371 14.6999 39.5846 14.6999 39.5846C12.7734 38.2669 14.8451 38.2943 14.8451 38.2943C16.9766 38.4437 18.0995 40.4821 18.0995 40.4821C19.993 43.727 23.0661 42.7891 24.2775 42.247C24.4681 40.8748 25.0183 39.9379 25.6254 39.4077C20.9099 38.8716 15.9525 37.0509 15.9525 28.9161C15.9525 26.5982 16.7822 24.7043 18.1403 23.2172C17.9195 22.6829 17.1929 20.5236 18.3456 17.5993C18.3456 17.5993 20.128 17.0287 24.1851 19.7754C25.8789 19.3047 27.6954 19.0681 29.5 19.06C31.3035 19.0681 33.1211 19.304 34.8181 19.7747C38.8702 17.028 40.6505 17.5986 40.6505 17.5986C41.8061 20.5225 41.0794 22.6821 40.859 23.2165C42.2202 24.7036 43.0439 26.5975 43.0439 28.9154C43.0439 37.0695 38.0774 38.8646 33.35 39.3905C34.1118 40.0493 34.7903 41.3417 34.7903 43.322C34.7903 46.1627 34.7657 48.4489 34.7657 49.1481C34.7657 49.7131 35.1482 50.3751 36.224 50.1666C44.6545 47.3562 50.7305 39.4011 50.7305 30.0242C50.7302 18.2992 41.2246 8.79402 29.5 8.79402Z" fill="#186DF8"/>
<path d="M16.3108 39.2755C16.264 39.381 16.0981 39.4127 15.9469 39.3406C15.7922 39.2717 15.7061 39.1279 15.756 39.0221C15.8017 38.9131 15.968 38.8832 16.1216 38.956C16.2763 39.0252 16.3646 39.1701 16.3108 39.2755ZM17.1707 40.235C17.0698 40.3288 16.8719 40.2852 16.7376 40.1365C16.5984 39.9889 16.5723 39.7909 16.6754 39.6957C16.7801 39.6021 16.9721 39.6464 17.1113 39.7941C17.2498 39.9439 17.2769 40.1397 17.1707 40.235ZM18.0081 41.4573C17.878 41.548 17.665 41.4633 17.5335 41.2745C17.4034 41.0854 17.4034 40.8586 17.537 40.7683C17.6682 40.6776 17.878 40.7595 18.0116 40.9465C18.141 41.1381 18.141 41.3652 18.0081 41.4573ZM19.1546 42.6389C19.0386 42.7673 18.7904 42.7328 18.6089 42.5581C18.4237 42.3869 18.372 42.1432 18.4884 42.0153C18.6065 41.8866 18.8557 41.9225 19.0382 42.0961C19.2235 42.267 19.2787 42.5113 19.1546 42.6389ZM20.7366 43.3248C20.6849 43.4911 20.4466 43.5667 20.2057 43.4957C19.9656 43.4229 19.8085 43.2285 19.8577 43.0605C19.9069 42.8928 20.147 42.8144 20.3893 42.89C20.6294 42.9624 20.7865 43.1557 20.7366 43.3248ZM22.4744 43.4518C22.4804 43.6268 22.2764 43.7717 22.0244 43.7752C21.7702 43.7812 21.5645 43.6391 21.5621 43.4669C21.5621 43.29 21.7618 43.147 22.0156 43.142C22.2677 43.1375 22.4744 43.2784 22.4744 43.4518ZM24.0909 43.1768C24.1211 43.3473 23.9457 43.5228 23.695 43.5695C23.4489 43.6152 23.2204 43.5091 23.1888 43.34C23.1585 43.1649 23.3371 42.9895 23.5832 42.9441C23.8342 42.9009 24.0592 43.0035 24.0909 43.1768Z" fill="#186DF8"/>
</svg>
