<svg width="99" height="100" viewBox="0 0 99 100" fill="none" xmlns="http://www.w3.org/2000/svg">
<rect y="0.46582" width="99" height="99" rx="5" fill="#101010"/>
<path d="M50 17C68.2256 17 83 31.6884 83 49.8079C83 64.3746 73.4465 76.7172 60.2314 81C60.2355 80.9877 60.241 80.9699 60.241 80.9699C60.241 80.9699 58.0135 79.9324 58.0603 78.0801C58.1125 76.0419 58.0603 71.2848 58.0603 69.5391C58.0603 66.5413 56.1517 64.417 56.1517 64.417C56.1517 64.417 71.1173 64.5837 71.1173 48.7088C71.1173 42.5833 67.897 39.3969 67.897 39.3969C67.897 39.3969 69.5883 32.8572 67.3113 30.0849C64.7593 29.8115 60.1888 32.5099 58.2363 33.7717C58.2363 33.7717 55.1425 32.5113 49.9986 32.5113C44.8534 32.5113 41.761 33.7717 41.761 33.7717C39.8099 32.5113 35.238 29.8115 32.686 30.0849C30.409 32.8585 32.1003 39.3969 32.1003 39.3969C32.1003 39.3969 28.88 42.5847 28.88 48.7088C28.88 64.5837 43.8455 64.417 43.8455 64.417C43.8455 64.417 42.3371 66.1107 42.0085 68.6014C40.9635 68.954 39.4276 69.3887 38.186 69.3887C34.9383 69.3887 32.4674 66.2501 31.5626 64.7984C30.6703 63.3658 28.8401 62.1642 27.1338 62.1642C26.0104 62.1642 25.4617 62.7233 25.4617 63.3617C25.4617 64 27.0375 64.4457 28.077 65.6295C30.2687 68.1256 30.2289 73.7399 38.0389 73.7399C38.8873 73.7399 40.6184 73.5321 41.9205 73.3585C41.9123 75.126 41.9109 76.9906 41.9384 78.0801C41.9851 79.9324 39.7576 80.9699 39.7576 80.9699C39.7576 80.9699 39.7631 80.9877 39.7673 81C26.5535 76.7172 17 64.3746 17 49.8079C17 31.6884 31.7744 17 50 17Z" fill="#144dff"/>
</svg>
