<svg width="129" height="129" viewBox="0 0 129 129" fill="none" xmlns="http://www.w3.org/2000/svg">
<path d="M0 5.00001C0 2.23858 2.23858 0 5 0H123.466C126.227 0 128.466 2.23858 128.466 5V123.466C128.466 126.227 126.227 128.466 123.466 128.466H5.00001C2.23858 128.466 0 126.227 0 123.466V5.00001Z" fill="#0B1835"/>
<path d="M104.547 19.6484C104.172 19.2344 103.633 19 103.07 19H24.9297C24.3672 19 23.8281 19.2344 23.4531 19.6484C23.0703 20.0625 22.8828 20.6172 22.9375 21.1797L29.9766 100.031C30.0469 100.859 30.625 101.547 31.4219 101.781L63.4453 110.922C63.6172 110.977 63.8047 111 63.9922 111C64.1797 111 64.3594 110.977 64.5391 110.922L96.5859 101.781C97.3828 101.547 97.9531 100.859 98.0312 100.031L105.062 21.1797C105.117 20.6172 104.93 20.0625 104.547 19.6484ZM87.6953 46.8359H50.0703L50.9688 57.0156H86.7891L84.1016 87.1016L63.9844 93.1797L63.7891 93.1172L43.9062 87.0938L42.8203 74.8359H52.5625L52.9844 79.5938L64.1016 81.9219L75.0156 79.5938L76.1797 66.7188H42.0938L39.4453 37.1094H88.5625L87.6953 46.8359Z" fill="#186DF8"/>
</svg>
