<svg width="129" height="129" viewBox="0 0 129 129" fill="none" xmlns="http://www.w3.org/2000/svg">
<path d="M0.34082 5.00001C0.34082 2.23858 2.5794 0 5.34082 0H123.807C126.568 0 128.807 2.23858 128.807 5V123.466C128.807 126.227 126.568 128.466 123.807 128.466H5.34083C2.5794 128.466 0.34082 126.227 0.34082 123.466V5.00001Z" fill="#141414"/>
<path d="M98.2244 25.6932H30.9304C28.2277 25.6932 26.034 27.8869 26.034 30.5895V97.8764C26.034 100.579 28.2277 102.773 30.9304 102.773H98.2172C100.92 102.773 103.114 100.579 103.114 97.8836V30.5895C103.114 27.8869 100.92 25.6932 98.2244 25.6932ZM68.2443 84.7574C68.2443 92.0912 63.9429 95.4318 57.663 95.4318C51.9853 95.4318 47.8919 91.6252 46.2215 88.0909L51.9925 84.5997C53.1036 86.5711 54.7955 88.0909 57.2329 88.0909C59.5628 88.0909 60.9033 87.1805 60.9033 83.6391V60.5625H68.2443V84.7574ZM84.1663 95.4318C77.6641 95.4318 73.9722 92.1557 71.9147 88.0909L77.4204 84.4205C78.9187 86.8722 80.5532 89.2164 84.0086 89.2164C86.912 89.2164 88.4318 87.7683 88.4318 85.7611C88.4318 83.3667 86.8546 82.5136 83.6645 81.1156L81.9153 80.3629C76.8612 78.2122 73.499 75.5168 73.499 69.8103C73.499 64.5627 77.5064 60.5625 83.7577 60.5625C88.2095 60.5625 91.4068 62.111 93.7152 66.1686L88.2669 69.6741C87.0625 67.5163 85.7721 66.6704 83.7577 66.6704C81.7074 66.6704 80.4098 67.9751 80.4098 69.6741C80.4098 71.7746 81.7074 72.6205 84.7111 73.9253L86.4603 74.678C92.4176 77.2229 95.7727 79.8252 95.7727 85.675C95.7727 91.9765 90.819 95.4318 84.1663 95.4318Z" fill="#144dff"/>
</svg>
