<svg width="60" height="60" viewBox="0 0 60 60" fill="none" xmlns="http://www.w3.org/2000/svg">
<path d="M0 10C0 4.47715 4.47715 0 10 0H50C55.5228 0 60 4.47715 60 10V50C60 55.5228 55.5228 60 50 60H10C4.47715 60 0 55.5228 0 50V10Z" fill="#0B1835"/>
<path d="M47.7812 8.05469H11.2188C10.3892 8.04624 9.59013 8.36724 8.99694 8.94724C8.40376 9.52725 8.06489 10.3189 8.05469 11.1484V47.8586C8.06673 48.6869 8.40641 49.4768 8.9994 50.0552C9.59238 50.6337 10.3904 50.9538 11.2188 50.9453H47.7812C48.6109 50.9519 49.4094 50.6298 50.0023 50.0494C50.5951 49.4691 50.9342 48.6776 50.9453 47.848V11.1379C50.9305 10.3108 50.5899 9.52291 49.9974 8.94557C49.4049 8.36823 48.6085 8.04807 47.7812 8.05469ZM20.7707 44.6172H14.4039V24.1316H20.7707V44.6172ZM17.6066 21.3402C16.8764 21.3409 16.1624 21.125 15.5548 20.7198C14.9473 20.3146 14.4737 19.7384 14.1937 19.0639C13.9138 18.3895 13.8402 17.6471 13.9822 16.9308C14.1243 16.2145 14.4756 15.5565 14.9917 15.0399C15.5078 14.5233 16.1655 14.1713 16.8817 14.0286C17.5978 13.8859 18.3402 13.9588 19.015 14.2381C19.6897 14.5174 20.2664 14.9905 20.6722 15.5976C21.0779 16.2048 21.2945 16.9186 21.2945 17.6488C21.2936 18.1342 21.197 18.6146 21.0102 19.0626C20.8234 19.5105 20.5501 19.9173 20.2059 20.2595C19.8617 20.6017 19.4534 20.8727 19.0044 21.0569C18.5554 21.2412 18.0744 21.3351 17.5891 21.3332L17.6066 21.3402ZM44.6172 44.6172H38.2504V34.6504C38.2504 32.2773 38.2082 29.2223 34.9422 29.2223C31.6762 29.2223 31.1207 31.8098 31.1207 34.4957V44.6172H24.7645V24.1316H30.8676V26.9441H30.952C31.8027 25.334 33.877 23.6359 36.9742 23.6359C43.4219 23.6219 44.6172 27.8652 44.6172 33.3672V44.6172Z" fill="#186DF8"/>
</svg>
