<svg width="99" height="99" viewBox="0 0 99 99" fill="none" xmlns="http://www.w3.org/2000/svg">
<rect width="99" height="99" rx="5" fill="#101010"/>
<path d="M74.5 18H26.5C22.36 18 19 21.36 19 25.5V73.5C19 77.64 22.36 81 26.5 81H74.5C78.64 81 82 77.64 82 73.5V25.5C82 21.36 78.64 18 74.5 18ZM38.5 42V70.5H29.5V42H38.5ZM29.5 33.705C29.5 31.605 31.3 30 34 30C36.7 30 38.395 31.605 38.5 33.705C38.5 35.805 36.82 37.5 34 37.5C31.3 37.5 29.5 35.805 29.5 33.705ZM71.5 70.5H62.5C62.5 70.5 62.5 56.61 62.5 55.5C62.5 52.5 61 49.5 57.25 49.44H57.13C53.5 49.44 52 52.53 52 55.5C52 56.865 52 70.5 52 70.5H43V42H52V45.84C52 45.84 54.895 42 60.715 42C66.67 42 71.5 46.095 71.5 54.39V70.5Z" fill="#E83030"/>
</svg>
