<svg width="325" height="34" viewBox="0 0 325 34" fill="none" xmlns="http://www.w3.org/2000/svg">
<path d="M291.006 7.75745C290.743 7.83098 286.365 7.85548 279.253 7.83098L267.913 7.79421V12.6958L277.634 12.659C282.978 12.6222 287.356 12.6467 287.356 12.6958C287.356 12.8673 286.704 13.8966 286.152 14.6074C285.562 15.3671 284.471 16.3719 283.668 16.9234C283.179 17.242 281.699 18.0262 281.561 18.0262C281.51 18.0262 281.535 16.9356 281.623 15.171L281.661 14.4726H276.129L276.117 16.9601C276.092 21.347 275.389 23.4914 273.319 25.4153C272.015 26.6284 270.848 27.2779 267.737 28.491L267.248 28.6871L267.813 29.2753C268.615 30.1208 269.506 31.3217 269.945 32.1794C270.158 32.5838 270.409 33.0372 270.51 33.1842L270.685 33.4538L271.526 33.0495C274.787 31.5177 276.97 29.9002 278.6 27.7803C280.231 25.6481 281.109 23.1728 281.398 19.8275L281.485 18.884L281.862 19.0923C282.276 19.3374 283.956 20.8936 284.571 21.6166L284.972 22.0822L286.139 21.3102C286.791 20.8691 287.92 19.9256 288.748 19.129C290.743 17.1807 292.135 15.171 293.314 12.512C293.577 11.936 293.929 11.2866 294.092 11.066L294.405 10.6616L294.117 10.3308C293.954 10.1592 293.728 9.92639 293.615 9.82836C293.515 9.71807 293.013 9.1789 292.511 8.61522C292.009 8.0638 291.558 7.61041 291.508 7.62266C291.47 7.62266 291.244 7.68393 291.006 7.75745Z" fill="#186DF8"/>
<path d="M299.748 9.53906L297.97 11.7557L298.868 12.2703C301.223 13.6161 303.529 15.437 305.756 17.7031L306.509 18.4651L308.316 16.0406C309.313 14.7047 310.133 13.5865 310.153 13.5469C310.221 13.3687 306.958 10.7562 305.111 9.49948C304.076 8.79687 301.663 7.3125 301.584 7.32239C301.555 7.32239 300.725 8.32187 299.748 9.53906Z" fill="#186DF8"/>
<path d="M319.952 10.9839C318.663 14.0714 318.076 15.1995 316.767 17.2083C314.256 21.0281 311.54 23.2646 307.31 24.9667C304.73 26.0156 302.21 26.6292 298.82 27.0547C298.556 27.0943 298.351 27.1635 298.351 27.213C298.351 27.2724 298.526 27.9651 298.741 28.7667C300.021 33.5958 299.884 33.1703 300.139 33.1109C307.232 31.5078 310.72 30.2214 314.276 27.9057C317.529 25.7979 320.226 22.938 322.307 19.4151C322.981 18.2672 323.831 16.6542 324.407 15.4073L324.622 14.9422L323.401 13.9823C322.727 13.4578 321.701 12.5078 321.115 11.8844C320.089 10.7958 320.04 10.7563 319.952 10.9839Z" fill="#186DF8"/>
<path d="M0.904005 32L0.880005 7.99999H6.73601L6.76 10.136C7.576 9.27199 8.55201 8.59199 9.68801 8.09599C10.824 7.58399 12.048 7.32799 13.36 7.32799C14.24 7.32799 15.12 7.45599 16 7.71199L13.696 13.616C13.088 13.376 12.48 13.256 11.872 13.256C10.928 13.256 10.064 13.488 9.28001 13.952C8.51201 14.4 7.89601 15.016 7.432 15.8C6.984 16.568 6.76 17.424 6.76 18.368V32H0.904005Z" fill="#EEF7FF"/>
<path d="M28.1275 32.624C25.9195 32.624 23.9035 32.056 22.0795 30.92C20.2715 29.784 18.8235 28.256 17.7355 26.336C16.6635 24.416 16.1275 22.296 16.1275 19.976C16.1275 18.232 16.4395 16.6 17.0635 15.08C17.6875 13.544 18.5435 12.2 19.6315 11.048C20.7355 9.87999 22.0155 8.96799 23.4715 8.31199C24.9275 7.65599 26.4795 7.32799 28.1275 7.32799C29.9995 7.32799 31.7115 7.72799 33.2635 8.52799C34.8315 9.31199 36.1595 10.392 37.2475 11.768C38.3355 13.144 39.1275 14.712 39.6235 16.472C40.1195 18.232 40.2315 20.072 39.9595 21.992H22.4155C22.6395 22.888 23.0075 23.696 23.5195 24.416C24.0315 25.12 24.6795 25.688 25.4635 26.12C26.2475 26.536 27.1355 26.752 28.1275 26.768C29.1515 26.784 30.0795 26.544 30.9115 26.048C31.7595 25.536 32.4635 24.848 33.0235 23.984L38.9995 25.376C38.0235 27.504 36.5675 29.248 34.6315 30.608C32.6955 31.952 30.5275 32.624 28.1275 32.624ZM22.2235 17.6H34.0315C33.8555 16.64 33.4795 15.776 32.9035 15.008C32.3435 14.224 31.6475 13.6 30.8155 13.136C29.9835 12.672 29.0875 12.44 28.1275 12.44C27.1675 12.44 26.2795 12.672 25.4635 13.136C24.6475 13.584 23.9515 14.2 23.3755 14.984C22.8155 15.752 22.4315 16.624 22.2235 17.6Z" fill="#EEF7FF"/>
<path d="M65.8484 16.832V32H59.9924V18.368C59.9924 17.424 59.7604 16.568 59.2964 15.8C58.8324 15.016 58.2084 14.4 57.4244 13.952C56.6564 13.488 55.8004 13.256 54.8564 13.256C53.9124 13.256 53.0484 13.488 52.2644 13.952C51.4964 14.4 50.8804 15.016 50.4164 15.8C49.9684 16.568 49.7444 17.424 49.7444 18.368V32H43.8884L43.8644 7.99999H49.7204L49.7444 10.136C50.5604 9.27199 51.5364 8.59199 52.6724 8.09599C53.8084 7.58399 55.0324 7.32799 56.3444 7.32799C58.0884 7.32799 59.6804 7.75999 61.1204 8.62399C62.5604 9.47199 63.7044 10.616 64.5524 12.056C65.4164 13.48 65.8484 15.072 65.8484 16.832Z" fill="#EEF7FF"/>
<path d="M88.2573 7.99999H94.1133V32H88.2573L87.9933 29.024C87.3373 30.096 86.4653 30.968 85.3773 31.64C84.3053 32.296 83.0333 32.624 81.5613 32.624C79.7853 32.624 78.1213 32.288 76.5693 31.616C75.0173 30.944 73.6493 30.016 72.4653 28.832C71.2973 27.648 70.3773 26.28 69.7053 24.728C69.0493 23.176 68.7213 21.512 68.7213 19.736C68.7213 18.024 69.0333 16.416 69.6573 14.912C70.2973 13.408 71.1853 12.088 72.3213 10.952C73.4573 9.81599 74.7693 8.92799 76.2573 8.28799C77.7453 7.64799 79.3453 7.32799 81.0573 7.32799C82.6413 7.32799 84.0573 7.67999 85.3053 8.38399C86.5693 9.08799 87.6413 9.98399 88.5213 11.072L88.2573 7.99999ZM81.4173 26.984C82.6653 26.984 83.7693 26.672 84.7293 26.048C85.6893 25.424 86.4413 24.584 86.9853 23.528C87.5293 22.456 87.8013 21.28 87.8013 20C87.8013 18.704 87.5293 17.528 86.9853 16.472C86.4413 15.4 85.6813 14.552 84.7053 13.928C83.7453 13.304 82.6493 12.992 81.4173 12.992C80.1853 12.992 79.0573 13.312 78.0333 13.952C77.0253 14.576 76.2173 15.416 75.6093 16.472C75.0173 17.528 74.7213 18.704 74.7213 20C74.7213 21.296 75.0253 22.472 75.6333 23.528C76.2413 24.584 77.0493 25.424 78.0573 26.048C79.0813 26.672 80.2013 26.984 81.4173 26.984Z" fill="#EEF7FF"/>
<path d="M111.76 13.856H107.104V32H101.248V13.856H97.6956V7.99999H101.248V0.463989H107.104V7.99999H111.76V13.856Z" fill="#EEF7FF"/>
<path d="M126.096 32.624C123.888 32.624 121.872 32.056 120.048 30.92C118.24 29.784 116.792 28.264 115.704 26.36C114.632 24.44 114.096 22.32 114.096 20C114.096 18.24 114.408 16.6 115.032 15.08C115.656 13.544 116.512 12.2 117.6 11.048C118.704 9.87999 119.984 8.96799 121.44 8.31199C122.896 7.65599 124.448 7.32799 126.096 7.32799C128.304 7.32799 130.312 7.89599 132.12 9.03199C133.944 10.168 135.392 11.696 136.464 13.616C137.552 15.536 138.096 17.664 138.096 20C138.096 21.744 137.784 23.376 137.16 24.896C136.536 26.416 135.672 27.76 134.568 28.928C133.48 30.08 132.208 30.984 130.752 31.64C129.312 32.296 127.76 32.624 126.096 32.624ZM126.096 26.768C127.264 26.768 128.312 26.456 129.24 25.832C130.168 25.208 130.896 24.384 131.424 23.36C131.968 22.336 132.24 21.216 132.24 20C132.24 18.752 131.96 17.616 131.4 16.592C130.856 15.552 130.112 14.728 129.168 14.12C128.24 13.496 127.216 13.184 126.096 13.184C124.944 13.184 123.904 13.496 122.976 14.12C122.048 14.744 121.312 15.576 120.768 16.616C120.224 17.656 119.952 18.784 119.952 20C119.952 21.264 120.232 22.408 120.792 23.432C121.352 24.456 122.096 25.272 123.024 25.88C123.968 26.472 124.992 26.768 126.096 26.768Z" fill="#EEF7FF"/>
<path d="M163.817 16.832V32H157.961V18.368C157.961 17.424 157.729 16.568 157.265 15.8C156.801 15.016 156.177 14.4 155.393 13.952C154.625 13.488 153.769 13.256 152.825 13.256C151.881 13.256 151.017 13.488 150.233 13.952C149.465 14.4 148.849 15.016 148.385 15.8C147.937 16.568 147.713 17.424 147.713 18.368V32H141.857L141.833 7.99999H147.689L147.713 10.136C148.529 9.27199 149.505 8.59199 150.641 8.09599C151.777 7.58399 153.001 7.32799 154.313 7.32799C156.057 7.32799 157.649 7.75999 159.089 8.62399C160.529 9.47199 161.673 10.616 162.521 12.056C163.385 13.48 163.817 15.072 163.817 16.832Z" fill="#EEF7FF"/>
<path d="M167.639 23.12V7.99999H173.495V21.584C173.495 22.528 173.727 23.392 174.191 24.176C174.655 24.944 175.271 25.56 176.039 26.024C176.823 26.472 177.679 26.696 178.607 26.696C179.567 26.696 180.431 26.472 181.199 26.024C181.967 25.56 182.583 24.944 183.047 24.176C183.511 23.392 183.743 22.528 183.743 21.584V7.99999H189.599L189.623 32H183.767L183.743 29.816C182.911 30.68 181.927 31.368 180.791 31.88C179.655 32.376 178.439 32.624 177.143 32.624C175.399 32.624 173.807 32.2 172.367 31.352C170.927 30.488 169.775 29.344 168.911 27.92C168.063 26.48 167.639 24.88 167.639 23.12Z" fill="#EEF7FF"/>
<path d="M216.411 16.832V32H210.555V18.368C210.555 17.424 210.323 16.568 209.859 15.8C209.395 15.016 208.771 14.4 207.987 13.952C207.219 13.488 206.363 13.256 205.419 13.256C204.475 13.256 203.611 13.488 202.827 13.952C202.059 14.4 201.443 15.016 200.979 15.8C200.531 16.568 200.307 17.424 200.307 18.368V32H194.451L194.427 7.99999H200.283L200.307 10.136C201.123 9.27199 202.099 8.59199 203.235 8.09599C204.371 7.58399 205.595 7.32799 206.907 7.32799C208.651 7.32799 210.243 7.75999 211.683 8.62399C213.123 9.47199 214.267 10.616 215.115 12.056C215.979 13.48 216.411 15.072 216.411 16.832Z" fill="#EEF7FF"/>
<path d="M231.284 32.624C229.076 32.624 227.06 32.056 225.236 30.92C223.428 29.784 221.98 28.256 220.892 26.336C219.82 24.416 219.284 22.296 219.284 19.976C219.284 18.232 219.596 16.6 220.22 15.08C220.844 13.544 221.7 12.2 222.788 11.048C223.892 9.87999 225.172 8.96799 226.628 8.31199C228.084 7.65599 229.636 7.32799 231.284 7.32799C233.156 7.32799 234.868 7.72799 236.42 8.52799C237.988 9.31199 239.316 10.392 240.404 11.768C241.492 13.144 242.284 14.712 242.78 16.472C243.276 18.232 243.388 20.072 243.116 21.992H225.572C225.796 22.888 226.164 23.696 226.676 24.416C227.188 25.12 227.836 25.688 228.62 26.12C229.404 26.536 230.292 26.752 231.284 26.768C232.308 26.784 233.236 26.544 234.068 26.048C234.916 25.536 235.62 24.848 236.18 23.984L242.156 25.376C241.18 27.504 239.724 29.248 237.788 30.608C235.852 31.952 233.684 32.624 231.284 32.624ZM225.38 17.6H237.188C237.012 16.64 236.636 15.776 236.06 15.008C235.5 14.224 234.804 13.6 233.972 13.136C233.14 12.672 232.244 12.44 231.284 12.44C230.324 12.44 229.436 12.672 228.62 13.136C227.804 13.584 227.108 14.2 226.532 14.984C225.972 15.752 225.588 16.624 225.38 17.6Z" fill="#EEF7FF"/>
<path d="M254.288 32.432C253.04 32.352 251.832 32.104 250.664 31.688C249.512 31.256 248.488 30.672 247.592 29.936C246.696 29.2 246.008 28.32 245.528 27.296L250.472 25.184C250.664 25.504 250.976 25.848 251.408 26.216C251.84 26.568 252.352 26.864 252.944 27.104C253.552 27.344 254.216 27.464 254.936 27.464C255.544 27.464 256.12 27.384 256.664 27.224C257.224 27.048 257.672 26.784 258.008 26.432C258.36 26.08 258.536 25.624 258.536 25.064C258.536 24.472 258.328 24.016 257.912 23.696C257.512 23.36 257 23.112 256.376 22.952C255.768 22.776 255.176 22.616 254.6 22.472C253.08 22.168 251.664 21.696 250.352 21.056C249.056 20.416 248.008 19.592 247.208 18.584C246.424 17.56 246.032 16.328 246.032 14.888C246.032 13.304 246.448 11.936 247.28 10.784C248.128 9.63199 249.224 8.74399 250.568 8.11999C251.928 7.49599 253.392 7.18399 254.96 7.18399C256.864 7.18399 258.608 7.58399 260.192 8.38399C261.792 9.16799 263.056 10.28 263.984 11.72L259.352 14.456C259.128 14.072 258.816 13.72 258.416 13.4C258.016 13.064 257.56 12.792 257.048 12.584C256.536 12.36 256 12.232 255.44 12.2C254.72 12.168 254.064 12.232 253.472 12.392C252.88 12.552 252.4 12.824 252.032 13.208C251.68 13.592 251.504 14.104 251.504 14.744C251.504 15.352 251.744 15.808 252.224 16.112C252.704 16.4 253.28 16.624 253.952 16.784C254.64 16.944 255.296 17.12 255.92 17.312C257.328 17.776 258.648 18.344 259.88 19.016C261.128 19.688 262.128 20.512 262.88 21.488C263.632 22.464 263.992 23.632 263.96 24.992C263.96 26.544 263.496 27.904 262.568 29.072C261.64 30.224 260.44 31.104 258.968 31.712C257.512 32.32 255.952 32.56 254.288 32.432Z" fill="#EEF7FF"/>
</svg>
