<svg width="251" height="48" viewBox="0 0 251 48" fill="none" xmlns="http://www.w3.org/2000/svg">
<path d="M0.904005 36L0.880005 12H6.73601L6.76 14.136C7.576 13.272 8.55201 12.592 9.68801 12.096C10.824 11.584 12.048 11.328 13.36 11.328C14.24 11.328 15.12 11.456 16 11.712L13.696 17.616C13.088 17.376 12.48 17.256 11.872 17.256C10.928 17.256 10.064 17.488 9.28001 17.952C8.51201 18.4 7.89601 19.016 7.432 19.8C6.984 20.568 6.76 21.424 6.76 22.368V36H0.904005Z" fill="white"/>
<path d="M28.1275 36.624C25.9195 36.624 23.9035 36.056 22.0795 34.92C20.2715 33.784 18.8235 32.256 17.7355 30.336C16.6635 28.416 16.1275 26.296 16.1275 23.976C16.1275 22.232 16.4395 20.6 17.0635 19.08C17.6875 17.544 18.5435 16.2 19.6315 15.048C20.7355 13.88 22.0155 12.968 23.4715 12.312C24.9275 11.656 26.4795 11.328 28.1275 11.328C29.9995 11.328 31.7115 11.728 33.2635 12.528C34.8315 13.312 36.1595 14.392 37.2475 15.768C38.3355 17.144 39.1275 18.712 39.6235 20.472C40.1195 22.232 40.2315 24.072 39.9595 25.992H22.4155C22.6395 26.888 23.0075 27.696 23.5195 28.416C24.0315 29.12 24.6795 29.688 25.4635 30.12C26.2475 30.536 27.1355 30.752 28.1275 30.768C29.1515 30.784 30.0795 30.544 30.9115 30.048C31.7595 29.536 32.4635 28.848 33.0235 27.984L38.9995 29.376C38.0235 31.504 36.5675 33.248 34.6315 34.608C32.6955 35.952 30.5275 36.624 28.1275 36.624ZM22.2235 21.6H34.0315C33.8555 20.64 33.4795 19.776 32.9035 19.008C32.3435 18.224 31.6475 17.6 30.8155 17.136C29.9835 16.672 29.0875 16.44 28.1275 16.44C27.1675 16.44 26.2795 16.672 25.4635 17.136C24.6475 17.584 23.9515 18.2 23.3755 18.984C22.8155 19.752 22.4315 20.624 22.2235 21.6Z" fill="white"/>
<path d="M65.8484 20.832V36H59.9924V22.368C59.9924 21.424 59.7604 20.568 59.2964 19.8C58.8324 19.016 58.2084 18.4 57.4244 17.952C56.6564 17.488 55.8004 17.256 54.8564 17.256C53.9124 17.256 53.0484 17.488 52.2644 17.952C51.4964 18.4 50.8804 19.016 50.4164 19.8C49.9684 20.568 49.7444 21.424 49.7444 22.368V36H43.8884L43.8644 12H49.7204L49.7444 14.136C50.5604 13.272 51.5364 12.592 52.6724 12.096C53.8084 11.584 55.0324 11.328 56.3444 11.328C58.0884 11.328 59.6804 11.76 61.1204 12.624C62.5604 13.472 63.7044 14.616 64.5524 16.056C65.4164 17.48 65.8484 19.072 65.8484 20.832Z" fill="white"/>
<path d="M88.2573 12H94.1133V36H88.2573L87.9933 33.024C87.3373 34.096 86.4653 34.968 85.3773 35.64C84.3053 36.296 83.0333 36.624 81.5613 36.624C79.7853 36.624 78.1213 36.288 76.5693 35.616C75.0173 34.944 73.6493 34.016 72.4653 32.832C71.2973 31.648 70.3773 30.28 69.7053 28.728C69.0493 27.176 68.7213 25.512 68.7213 23.736C68.7213 22.024 69.0333 20.416 69.6573 18.912C70.2973 17.408 71.1853 16.088 72.3213 14.952C73.4573 13.816 74.7693 12.928 76.2573 12.288C77.7453 11.648 79.3453 11.328 81.0573 11.328C82.6413 11.328 84.0573 11.68 85.3053 12.384C86.5693 13.088 87.6413 13.984 88.5213 15.072L88.2573 12ZM81.4173 30.984C82.6653 30.984 83.7693 30.672 84.7293 30.048C85.6893 29.424 86.4413 28.584 86.9853 27.528C87.5293 26.456 87.8013 25.28 87.8013 24C87.8013 22.704 87.5293 21.528 86.9853 20.472C86.4413 19.4 85.6813 18.552 84.7053 17.928C83.7453 17.304 82.6493 16.992 81.4173 16.992C80.1853 16.992 79.0573 17.312 78.0333 17.952C77.0253 18.576 76.2173 19.416 75.6093 20.472C75.0173 21.528 74.7213 22.704 74.7213 24C74.7213 25.296 75.0253 26.472 75.6333 27.528C76.2413 28.584 77.0493 29.424 78.0573 30.048C79.0813 30.672 80.2013 30.984 81.4173 30.984Z" fill="white"/>
<path d="M111.76 17.856H107.104V36H101.248V17.856H97.6956V12H101.248V4.464H107.104V12H111.76V17.856Z" fill="white"/>
<path d="M126.096 36.624C123.888 36.624 121.872 36.056 120.048 34.92C118.24 33.784 116.792 32.264 115.704 30.36C114.632 28.44 114.096 26.32 114.096 24C114.096 22.24 114.408 20.6 115.032 19.08C115.656 17.544 116.512 16.2 117.6 15.048C118.704 13.88 119.984 12.968 121.44 12.312C122.896 11.656 124.448 11.328 126.096 11.328C128.304 11.328 130.312 11.896 132.12 13.032C133.944 14.168 135.392 15.696 136.464 17.616C137.552 19.536 138.096 21.664 138.096 24C138.096 25.744 137.784 27.376 137.16 28.896C136.536 30.416 135.672 31.76 134.568 32.928C133.48 34.08 132.208 34.984 130.752 35.64C129.312 36.296 127.76 36.624 126.096 36.624ZM126.096 30.768C127.264 30.768 128.312 30.456 129.24 29.832C130.168 29.208 130.896 28.384 131.424 27.36C131.968 26.336 132.24 25.216 132.24 24C132.24 22.752 131.96 21.616 131.4 20.592C130.856 19.552 130.112 18.728 129.168 18.12C128.24 17.496 127.216 17.184 126.096 17.184C124.944 17.184 123.904 17.496 122.976 18.12C122.048 18.744 121.312 19.576 120.768 20.616C120.224 21.656 119.952 22.784 119.952 24C119.952 25.264 120.232 26.408 120.792 27.432C121.352 28.456 122.096 29.272 123.024 29.88C123.968 30.472 124.992 30.768 126.096 30.768Z" fill="white"/>
<path d="M163.817 20.832V36H157.961V22.368C157.961 21.424 157.729 20.568 157.265 19.8C156.801 19.016 156.177 18.4 155.393 17.952C154.625 17.488 153.769 17.256 152.825 17.256C151.881 17.256 151.017 17.488 150.233 17.952C149.465 18.4 148.849 19.016 148.385 19.8C147.937 20.568 147.713 21.424 147.713 22.368V36H141.857L141.833 12H147.689L147.713 14.136C148.529 13.272 149.505 12.592 150.641 12.096C151.777 11.584 153.001 11.328 154.313 11.328C156.057 11.328 157.649 11.76 159.089 12.624C160.529 13.472 161.673 14.616 162.521 16.056C163.385 17.48 163.817 19.072 163.817 20.832Z" fill="#144dff"/>
<path d="M190.583 20.832V36H184.727V22.368C184.727 21.424 184.495 20.568 184.031 19.8C183.567 19.016 182.943 18.4 182.159 17.952C181.391 17.488 180.535 17.256 179.591 17.256C178.647 17.256 177.783 17.488 176.999 17.952C176.231 18.4 175.615 19.016 175.151 19.8C174.703 20.568 174.479 21.424 174.479 22.368V36H168.623L168.599 12H174.455L174.479 14.136C175.295 13.272 176.271 12.592 177.407 12.096C178.543 11.584 179.767 11.328 181.079 11.328C182.823 11.328 184.415 11.76 185.855 12.624C187.295 13.472 188.439 14.616 189.287 16.056C190.151 17.48 190.583 19.072 190.583 20.832Z" fill="#144dff"/>
<path d="M208.273 11.328C210.609 11.328 212.737 11.896 214.657 13.032C216.577 14.168 218.105 15.696 219.241 17.616C220.377 19.52 220.945 21.632 220.945 23.952C220.945 25.696 220.617 27.336 219.961 28.872C219.305 30.408 218.393 31.76 217.225 32.928C216.073 34.08 214.729 34.984 213.193 35.64C211.673 36.296 210.033 36.624 208.273 36.624C206.769 36.624 205.433 36.288 204.265 35.616C203.113 34.928 202.145 34.04 201.361 32.952V36H195.505V0H201.361V15C202.145 13.912 203.113 13.032 204.265 12.36C205.433 11.672 206.769 11.328 208.273 11.328ZM208.201 30.96C209.449 30.96 210.577 30.648 211.585 30.024C212.609 29.384 213.425 28.536 214.033 27.48C214.641 26.424 214.945 25.248 214.945 23.952C214.945 22.672 214.641 21.504 214.033 20.448C213.425 19.376 212.609 18.528 211.585 17.904C210.561 17.28 209.433 16.968 208.201 16.968C206.985 16.968 205.897 17.288 204.937 17.928C203.977 18.552 203.225 19.4 202.681 20.472C202.137 21.528 201.865 22.688 201.865 23.952C201.865 25.248 202.137 26.432 202.681 27.504C203.225 28.56 203.977 29.4 204.937 30.024C205.897 30.648 206.985 30.96 208.201 30.96Z" fill="#144dff"/>
<path d="M230.564 48H224.708V12H230.564V15.048C231.348 13.96 232.308 13.08 233.444 12.408C234.596 11.72 235.94 11.376 237.476 11.376C239.236 11.376 240.876 11.704 242.396 12.36C243.916 13.016 245.252 13.928 246.404 15.096C247.572 16.248 248.476 17.584 249.116 19.104C249.772 20.624 250.1 22.256 250.1 24C250.1 25.744 249.772 27.384 249.116 28.92C248.476 30.456 247.572 31.808 246.404 32.976C245.252 34.128 243.916 35.032 242.396 35.688C240.876 36.344 239.236 36.672 237.476 36.672C235.94 36.672 234.596 36.336 233.444 35.664C232.308 34.976 231.348 34.088 230.564 33V48ZM237.404 17.016C236.188 17.016 235.1 17.336 234.14 17.976C233.18 18.6 232.428 19.44 231.884 20.496C231.34 21.552 231.068 22.72 231.068 24C231.068 25.28 231.34 26.456 231.884 27.528C232.428 28.584 233.18 29.432 234.14 30.072C235.1 30.696 236.188 31.008 237.404 31.008C238.636 31.008 239.764 30.696 240.788 30.072C241.812 29.448 242.628 28.608 243.236 27.552C243.844 26.48 244.148 25.296 244.148 24C244.148 22.72 243.844 21.552 243.236 20.496C242.628 19.44 241.812 18.6 240.788 17.976C239.78 17.336 238.652 17.016 237.404 17.016Z" fill="#144dff"/>
</svg>
