<svg width="129" height="129" viewBox="0 0 129 129" fill="none" xmlns="http://www.w3.org/2000/svg">
<rect width="128.466" height="128.466" rx="5" fill="#0B1835"/>
<path d="M63.2017 23C42.1301 23 43.4451 32.1378 43.4451 32.1378L43.4711 41.605H63.5778V44.4451H35.4797C35.4797 44.4451 22 42.9148 22 64.1784C22 85.4368 33.7678 84.6846 33.7678 84.6846H40.7917V74.818C40.7917 74.818 40.413 63.0501 52.3728 63.0501H72.3136C72.3136 63.0501 83.5186 63.2317 83.5186 52.2212V34.0157C83.5186 34.0157 85.2201 23 63.2017 23ZM52.1134 29.3651C54.1132 29.3651 55.7317 30.9836 55.7317 32.9833C55.7317 34.9831 54.1132 36.6016 52.1134 36.6016C51.6381 36.6023 51.1673 36.5092 50.728 36.3276C50.2887 36.146 49.8895 35.8795 49.5534 35.5434C49.2173 35.2073 48.9508 34.8081 48.7692 34.3688C48.5876 33.9295 48.4945 33.4587 48.4952 32.9833C48.4952 30.9836 50.1137 29.3651 52.1134 29.3651Z" fill="#186DF8"/>
<path d="M63.7983 105.567C84.8699 105.567 83.5549 96.4291 83.5549 96.4291L83.5289 86.9619H63.4222V84.1218H91.5177C91.5177 84.1218 105 85.6521 105 64.3911C105 43.1301 93.2321 43.8849 93.2321 43.8849H86.2083V53.7489C86.2083 53.7489 86.587 65.5168 74.6272 65.5168H54.6864C54.6864 65.5168 43.4814 65.3352 43.4814 76.3457V94.5512C43.4814 94.5512 41.7799 105.567 63.7983 105.567ZM74.8865 99.2018C74.4112 99.2025 73.9404 99.1094 73.5011 98.9278C73.0618 98.7462 72.6626 98.4797 72.3265 98.1436C71.9904 97.8074 71.7239 97.4083 71.5423 96.969C71.3607 96.5297 71.2676 96.0589 71.2683 95.5835C71.2683 93.5864 72.8868 91.9679 74.8865 91.9679C76.8863 91.9679 78.5048 93.5838 78.5048 95.5835C78.5048 97.5859 76.8863 99.2018 74.8865 99.2018Z" fill="#186DF8"/>
</svg>
