<svg width="129" height="129" viewBox="0 0 129 129" fill="none" xmlns="http://www.w3.org/2000/svg">
<path d="M0 5.17042C0 2.40899 2.23858 0.17041 5 0.17041H123.466C126.227 0.17041 128.466 2.40899 128.466 5.17041V123.636C128.466 126.398 126.227 128.636 123.466 128.636H5.00001C2.23858 128.636 0 126.398 0 123.636V5.17042Z" fill="#0B1835"/>
<path d="M64.233 72.5759C68.7465 72.5759 72.4055 68.9169 72.4055 64.4034C72.4055 59.8898 68.7465 56.2309 64.233 56.2309C59.7194 56.2309 56.0605 59.8898 56.0605 64.4034C56.0605 68.9169 59.7194 72.5759 64.233 72.5759Z" fill="#186DF8"/>
<path d="M95.2741 50.9259C93.697 50.3524 92.0481 49.7789 90.3276 49.2771C90.7577 47.5566 91.1162 45.836 91.4029 44.1872C92.9084 34.7243 91.2596 28.0573 86.6715 25.4765C85.3094 24.6879 83.804 24.3295 82.0834 24.3295C77.0652 24.3295 70.6849 28.0573 64.233 34.2942C57.781 28.0573 51.4007 24.3295 46.3825 24.3295C44.662 24.3295 43.1565 24.6879 41.7945 25.4765C37.2064 28.129 35.5576 34.796 37.063 44.1872C37.3498 45.836 37.7082 47.5566 38.1383 49.2771C36.4178 49.7789 34.769 50.2807 33.1918 50.9259C24.2308 54.367 19.3559 59.0984 19.3559 64.4034C19.3559 69.7083 24.3024 74.4398 33.1918 77.8808C34.769 78.4543 36.4178 79.0279 38.1383 79.5297C37.7082 81.2502 37.3498 82.9707 37.063 84.6196C35.5576 94.0824 37.2064 100.749 41.7945 103.33C43.1565 104.119 44.662 104.477 46.3825 104.477C51.4724 104.477 57.8527 100.749 64.233 94.5126C70.6849 100.749 77.0652 104.477 82.0834 104.477C83.804 104.477 85.3094 104.119 86.6715 103.33C91.2596 100.678 92.9084 94.0108 91.4029 84.6196C91.1162 82.9707 90.7577 81.2502 90.3276 79.5297C92.0481 79.0279 93.697 78.526 95.2741 77.8808C104.235 74.4398 109.11 69.7083 109.11 64.4034C109.11 59.0984 104.235 54.367 95.2741 50.9259ZM84.6642 29.0609C87.6034 30.7814 88.6071 36.0864 87.3884 43.6137C87.1733 45.1192 86.8149 46.6963 86.3847 48.3451C82.6569 47.4849 78.7141 46.9114 74.5561 46.5529C72.1187 43.1119 69.6096 40.0293 67.1005 37.2334C72.4055 32.0002 77.7821 28.4157 82.1551 28.4157C83.0871 28.4157 83.9473 28.6308 84.6642 29.0609ZM76.6351 71.5722C75.3447 73.8663 73.8392 76.1603 72.2621 78.4543C69.6096 78.6694 66.9571 78.7411 64.233 78.7411C61.4371 78.7411 58.7846 78.6694 56.2039 78.4543C54.6267 76.1603 53.1929 73.8663 51.9025 71.5722C50.5405 69.2065 49.2501 66.7691 48.103 64.4034C49.2501 62.0377 50.5405 59.6003 51.9025 57.2345C53.1929 54.9405 54.6984 52.6465 56.2755 50.3524C58.928 50.1374 61.5805 50.0657 64.3047 50.0657C67.1005 50.0657 69.753 50.1374 72.3338 50.3524C73.9109 52.6465 75.3447 54.9405 76.6351 57.2345C77.9972 59.6003 79.2876 62.0377 80.4346 64.4034C79.2159 66.7691 77.9972 69.1348 76.6351 71.5722ZM82.5852 69.2065C83.6606 71.7156 84.5208 74.153 85.3094 76.5904C82.872 77.1639 80.2912 77.5941 77.567 77.9525C78.4273 76.5904 79.3593 75.1567 80.1478 73.6512C81.0081 72.1457 81.7967 70.6403 82.5852 69.2065ZM64.233 88.6341C62.5125 86.7702 60.8636 84.7629 59.2865 82.684C60.9353 82.7557 62.5841 82.8273 64.233 82.8273C65.8818 82.8273 67.5307 82.7557 69.1795 82.684C67.6023 84.7629 65.9535 86.7702 64.233 88.6341ZM50.8989 77.8808C48.1747 77.5224 45.5939 77.0923 43.1565 76.5188C43.9451 74.153 44.8054 71.6439 45.8807 69.1348C46.6693 70.5686 47.4578 72.0741 48.3181 73.5078C49.1784 75.085 50.0386 76.4471 50.8989 77.8808ZM45.8807 59.6003C44.8054 57.0911 43.9451 54.6537 43.1565 52.2163C45.5939 51.6428 48.1747 51.2127 50.8989 50.8542C50.0386 52.2163 49.1067 53.6501 48.3181 55.1556C47.4578 56.661 46.6693 58.1665 45.8807 59.6003ZM64.233 40.1727C65.9535 42.0366 67.6023 44.0438 69.1795 46.1228C67.5307 46.0511 65.8818 45.9794 64.233 45.9794C62.5841 45.9794 60.9353 46.0511 59.2865 46.1228C60.8636 44.0438 62.5125 42.0366 64.233 40.1727ZM80.1478 55.2272L77.567 50.9259C80.2912 51.2844 82.872 51.7145 85.3094 52.288C84.5208 54.6537 83.6606 57.1628 82.5852 59.6719C81.7967 58.1665 81.0081 56.661 80.1478 55.2272ZM41.0776 43.6137C39.8589 36.0864 40.8625 30.7814 43.8017 29.0609C44.5186 28.6308 45.3789 28.4157 46.3108 28.4157C50.6121 28.4157 55.9888 31.9285 61.3654 37.2334C58.8563 39.9576 56.3472 43.1119 53.9098 46.5529C49.7519 46.9114 45.809 47.5566 42.0812 48.3451C41.6511 46.6963 41.3643 45.1192 41.0776 43.6137ZM23.3705 64.4034C23.3705 61.034 27.4567 57.4496 34.6256 54.7971C36.0594 54.2236 37.6365 53.7218 39.2137 53.2917C40.3607 56.8761 41.7945 60.6756 43.515 64.4751C41.7945 68.2746 40.289 72.0024 39.2137 75.5868C29.3206 72.7193 23.3705 68.4179 23.3705 64.4034ZM43.8017 99.7458C40.8625 98.0253 39.8589 92.7204 41.0776 85.1931C41.2926 83.6876 41.6511 82.1105 42.0812 80.4616C45.809 81.3219 49.7519 81.8954 53.9098 82.2538C56.3472 85.6949 58.8563 88.7775 61.3654 91.5733C56.0605 96.8066 50.6838 100.391 46.3108 100.391C45.3789 100.391 44.5186 100.176 43.8017 99.7458ZM87.3884 85.1931C88.6071 92.7204 87.6034 98.0253 84.6642 99.7458C83.9473 100.176 83.0871 100.391 82.1551 100.391C77.8538 100.391 72.4772 96.8783 67.1005 91.5733C69.6096 88.8492 72.1187 85.6949 74.5561 82.2538C78.7141 81.8954 82.6569 81.2502 86.3847 80.4616C86.8149 82.1105 87.1016 83.6876 87.3884 85.1931ZM93.8404 74.0097C92.4066 74.5832 90.8294 75.085 89.2523 75.5151C88.1053 71.9307 86.6715 68.1312 84.951 64.3317C86.6715 60.5322 88.177 56.8044 89.2523 53.22C99.1453 56.0875 105.095 60.3888 105.095 64.4034C105.095 67.7727 100.938 71.3572 93.8404 74.0097Z" fill="#186DF8"/>
</svg>
