<?xml version="1.0" standalone="no"?>
<!DOCTYPE svg PUBLIC "-//W3C//DTD SVG 20010904//EN"
 "http://www.w3.org/TR/2001/REC-SVG-20010904/DTD/svg10.dtd">
<svg version="1.0" xmlns="http://www.w3.org/2000/svg"
 width="665.000000pt" height="316.000000pt" viewBox="0 0 665.000000 316.000000"
 preserveAspectRatio="xMidYMid meet">

<g transform="translate(0.000000,316.000000) scale(0.100000,-0.100000)"
fill="#071024" stroke="none">
<path d="M744 2918 c3 -13 9 -135 13 -272 l6 -249 -229 6 c-126 4 -248 10
-272 13 l-42 7 2 -259 c3 -224 5 -259 18 -255 8 2 129 6 269 9 l254 5 -6 -304
c-4 -167 -8 -313 -9 -324 -3 -20 4 -20 267 -23 l271 -2 -1 322 0 323 314 3
314 2 -6 -182 c-10 -302 -60 -472 -183 -627 -122 -153 -300 -261 -589 -358
-60 -21 -112 -38 -114 -40 -2 -1 22 -31 54 -65 88 -95 173 -213 218 -305 23
-46 46 -83 51 -83 21 0 182 64 274 110 346 169 580 414 698 727 63 166 93 346
103 613 4 102 11 191 15 199 8 12 51 13 260 8 138 -4 260 -8 271 -9 19 -3 20
4 23 256 l2 259 -47 -7 c-27 -3 -151 -9 -276 -13 l-229 -6 4 271 3 272 -265 0
-265 0 3 -270 4 -270 -315 0 -315 0 -7 118 c-4 64 -5 186 -2 270 l7 152 -276
0 -276 0 6 -22z"/>
<path d="M3560 2708 c-91 -111 -173 -212 -183 -225 -17 -22 -17 -22 80 -79
233 -136 444 -298 650 -498 l129 -125 189 249 c219 291 213 240 45 379 -136
113 -240 191 -370 278 -124 82 -356 223 -367 223 -5 0 -83 -91 -173 -202z"/>
<path d="M5617 2563 c-3 -4 -26 -60 -52 -123 -97 -240 -264 -526 -417 -715
-104 -128 -282 -292 -409 -377 -320 -214 -759 -366 -1222 -423 -66 -8 -121
-16 -122 -17 -3 -3 109 -421 146 -550 l19 -66 68 18 c37 10 173 44 302 75 498
121 816 251 1140 467 399 267 676 596 940 1119 45 88 80 164 78 168 -2 5 -50
44 -108 87 -103 78 -253 218 -322 302 -20 24 -38 40 -41 35z"/>
</g>
</svg>
