<svg width="129" height="129" viewBox="0 0 129 129" fill="none" xmlns="http://www.w3.org/2000/svg">
<path d="M0.17041 5.17042C0.17041 2.40899 2.40899 0.17041 5.17041 0.17041H123.636C126.398 0.17041 128.636 2.40899 128.636 5.17041V123.636C128.636 126.398 126.398 128.636 123.636 128.636H5.17042C2.40899 128.636 0.17041 126.398 0.17041 123.636V5.17042Z" fill="#0B1835"/>
<path d="M101.108 25.8636H27.6988C26.684 25.8636 25.8636 26.6858 25.8636 27.6988V101.108C25.8636 102.121 26.684 102.943 27.6988 102.943H101.108C102.123 102.943 102.943 102.121 102.943 101.108V27.6988C102.943 26.6858 102.123 25.8636 101.108 25.8636ZM71.7443 67.0553H62.5682V95.6022H55.2272V67.0553H46.0511V60.7329H71.7443V67.0553ZM73.8016 93.9726V86.3417C73.8016 86.3417 77.9694 89.4836 82.9704 89.4836C87.9714 89.4836 87.7787 86.2132 87.7787 85.7654C87.7787 81.0195 73.6089 81.0195 73.6089 70.5055C73.6089 56.2073 94.2552 61.8487 94.2552 61.8487L93.9983 68.6464C93.9983 68.6464 90.5352 66.3377 86.6243 66.3377C82.7135 66.3377 81.3022 68.1968 81.3022 70.1843C81.3022 75.3138 95.6004 74.8018 95.6004 85.1249C95.6023 101.025 73.8016 93.9726 73.8016 93.9726Z" fill="#186DF8"/>
</svg>
