<svg width="129" height="129" viewBox="0 0 129 129" fill="none" xmlns="http://www.w3.org/2000/svg">
<path d="M0 5.00001C0 2.23858 2.23858 0 5 0H123.466C126.227 0 128.466 2.23858 128.466 5V123.466C128.466 126.227 126.227 128.466 123.466 128.466H5.00001C2.23858 128.466 0 126.227 0 123.466V5.00001Z" fill="#0B1835"/>
<path d="M36.6853 26.7512L53.218 26.7577L64.0252 44.6963L74.7942 26.7591L91.3125 26.7548L64.1078 73.9443L36.6853 26.7512Z" fill="#071024"/>
<path d="M18.6541 26.8777L36.671 26.7541L64.0913 73.9465L91.2981 26.757L109.346 26.7757L64.0891 104.444L18.6541 26.8777Z" fill="#186DF8"/>
</svg>
